<svg class="directorist-gutenberg-block-icon" xmlns="http://www.w3.org/2000/svg" width="24" height="24" viewBox="0 0 24 24" fill="none">
  <path d="M10 13C10.4295 13.5741 10.9774 14.0492 11.6066 14.3929C12.2357 14.7367 12.9315 14.9411 13.6467 14.9923C14.3618 15.0435 15.0796 14.9404 15.7513 14.6898C16.4231 14.4392 17.0331 14.0471 17.54 13.54L20.54 10.54C21.4508 9.59699 21.9548 8.33397 21.9434 7.02299C21.932 5.71201 21.4061 4.45794 20.4791 3.5309C19.5521 2.60386 18.298 2.07802 16.987 2.06663C15.676 2.05523 14.413 2.55921 13.47 3.47L11.75 5.18" stroke="currentColor" stroke-width="1.5" stroke-linecap="round" stroke-linejoin="round"/>
  <path d="M13.9982 11C13.5688 10.4259 13.0209 9.95081 12.3917 9.60706C11.7625 9.2633 11.0667 9.05888 10.3516 9.00766C9.63645 8.95645 8.91866 9.05963 8.2469 9.31021C7.57514 9.5608 6.96513 9.95293 6.45825 10.46L3.45825 13.46C2.54746 14.403 2.04348 15.666 2.05488 16.977C2.06627 18.288 2.59211 19.542 3.51915 20.4691C4.44619 21.3961 5.70026 21.922 7.01124 21.9334C8.32222 21.9448 9.58524 21.4408 10.5282 20.53L12.2382 18.82" stroke="currentColor" stroke-width="1.5" stroke-linecap="round" stroke-linejoin="round"/>
</svg>