<svg class="directorist-gutenberg-block-icon" xmlns="http://www.w3.org/2000/svg" width="24" height="24" viewBox="0 0 24 24" fill="none">
  <path d="M8.15994 7.41383C8.22192 7.40472 8.28077 7.38069 8.3314 7.34379C8.38204 7.30689 8.42294 7.25824 8.4506 7.20202L11.6494 0.720983C11.6813 0.656461 11.7307 0.602155 11.7919 0.564188C11.8531 0.526221 11.9237 0.506104 11.9957 0.506104C12.0677 0.506104 12.1383 0.526221 12.1995 0.564188C12.2607 0.602155 12.31 0.656461 12.342 0.720983L15.5423 7.20202C15.5698 7.25804 15.6105 7.30657 15.6608 7.34346C15.7112 7.38034 15.7697 7.40449 15.8314 7.41383L22.9834 8.45277C23.0551 8.46291 23.1224 8.49294 23.1778 8.53944C23.2332 8.58594 23.2744 8.64705 23.2968 8.71583C23.3192 8.7846 23.3218 8.85827 23.3044 8.92847C23.287 8.99867 23.2503 9.06258 23.1984 9.11293L18.0237 14.1561C17.9787 14.2 17.945 14.2542 17.9256 14.314C17.9062 14.3738 17.9016 14.4374 17.9124 14.4994L19.1338 21.622C19.1462 21.6932 19.1384 21.7664 19.1113 21.8334C19.0841 21.9004 19.0388 21.9584 18.9804 22.0009C18.9219 22.0434 18.8527 22.0687 18.7806 22.0739C18.7086 22.079 18.6365 22.0639 18.5726 22.0302L12.1766 18.666C12.121 18.6367 12.0592 18.6214 11.9965 18.6214C11.9337 18.6214 11.8719 18.6367 11.8163 18.666L5.4188 22.0286C5.35506 22.0618 5.28334 22.0765 5.21169 22.0712C5.14004 22.0659 5.07129 22.0407 5.01316 21.9985C4.95503 21.9562 4.90983 21.8986 4.88262 21.8321C4.85541 21.7656 4.84727 21.6929 4.85913 21.622L6.0805 14.4994C6.09127 14.4374 6.08675 14.3738 6.06736 14.314C6.04796 14.2542 6.01426 14.2 5.96919 14.1561L0.793019 9.11293C0.741067 9.06248 0.704335 8.99845 0.687008 8.92813C0.669681 8.85782 0.672456 8.78405 0.695018 8.71524C0.71758 8.64642 0.759021 8.58533 0.814617 8.53893C0.870213 8.49252 0.937728 8.46267 1.00947 8.45277L8.15994 7.41383ZM11.9972 16.3036C12.4301 16.3036 12.8615 16.4072 13.2557 16.6128L16.1855 18.1542L15.6258 14.8921C15.5515 14.4594 15.5836 14.0151 15.7194 13.5976C15.8551 13.1801 16.0905 12.8019 16.405 12.4957L18.7751 10.1843L15.4975 9.70816C15.0636 9.64498 14.6516 9.47731 14.2969 9.21956C13.9422 8.96182 13.6554 8.62174 13.4613 8.22859L11.9972 5.26018V16.3036Z" fill="currentColor"/>
</svg>