<svg class="directorist-gutenberg-block-icon" xmlns="http://www.w3.org/2000/svg" width="24" height="24" viewBox="0 0 24 24" fill="none">
  <path d="M2.06251 12.348C1.97916 12.1235 1.97916 11.8765 2.06251 11.652C2.87421 9.68385 4.25202 8.00103 6.02128 6.81689C7.79053 5.63275 9.87155 5.00061 12.0005 5.00061C14.1295 5.00061 16.2105 5.63275 17.9797 6.81689C19.749 8.00103 21.1268 9.68385 21.9385 11.652C22.0218 11.8765 22.0218 12.1235 21.9385 12.348C21.1268 14.3161 19.749 15.999 17.9797 17.1831C16.2105 18.3672 14.1295 18.9994 12.0005 18.9994C9.87155 18.9994 7.79053 18.3672 6.02128 17.1831C4.25202 15.999 2.87421 14.3161 2.06251 12.348Z" stroke="currentColor" stroke-width="1.5" stroke-linecap="round" stroke-linejoin="round"/>
  <path d="M12 15C13.6569 15 15 13.6569 15 12C15 10.3431 13.6569 9 12 9C10.3431 9 9 10.3431 9 12C9 13.6569 10.3431 15 12 15Z" stroke="currentColor" stroke-width="1.5" stroke-linecap="round" stroke-linejoin="round"/>
</svg>