<svg class="directorist-gutenberg-block-icon" xmlns="http://www.w3.org/2000/svg" width="24" height="24" viewBox="0 0 24 24" fill="none">
  <path d="M18 8C18 11.613 14.131 15.429 12.607 16.795C12.4327 16.9282 12.2194 17.0003 12 17.0003C11.7806 17.0003 11.5673 16.9282 11.393 16.795C9.87 15.429 6 11.613 6 8C6 6.4087 6.63214 4.88258 7.75736 3.75736C8.88258 2.63214 10.4087 2 12 2C13.5913 2 15.1174 2.63214 16.2426 3.75736C17.3679 4.88258 18 6.4087 18 8Z" stroke="currentColor" stroke-width="1.5" stroke-linecap="round" stroke-linejoin="round"/>
  <path d="M12 10C13.1046 10 14 9.10457 14 8C14 6.89543 13.1046 6 12 6C10.8954 6 10 6.89543 10 8C10 9.10457 10.8954 10 12 10Z" stroke="currentColor" stroke-width="1.5" stroke-linecap="round" stroke-linejoin="round"/>
  <path d="M8.71357 14H5.00357C4.7939 14.0001 4.58956 14.0661 4.41945 14.1886C4.24933 14.3112 4.12204 14.4841 4.05557 14.683L2.05157 20.683C2.00133 20.8333 1.98754 20.9934 2.01133 21.1501C2.03512 21.3068 2.09581 21.4556 2.1884 21.5842C2.28098 21.7128 2.40282 21.8176 2.54385 21.8899C2.68489 21.9622 2.84109 21.9999 2.99957 22H20.9996C21.1579 21.9999 21.314 21.9621 21.455 21.8899C21.5959 21.8177 21.7176 21.713 21.8102 21.5845C21.9028 21.456 21.9635 21.3074 21.9874 21.1508C22.0113 20.9942 21.9976 20.8343 21.9476 20.684L19.9476 14.684C19.8812 14.4848 19.7539 14.3115 19.5835 14.1888C19.4132 14.066 19.2085 13.9999 18.9986 14H15.2866" stroke="currentColor" stroke-width="1.5" stroke-linecap="round" stroke-linejoin="round"/>
</svg>