<svg width="20" height="20" viewBox="0 0 20 20" fill="none" xmlns="http://www.w3.org/2000/svg">
<path d="M0 10C0 4.47715 4.47715 0 10 0C15.5228 0 20 4.47715 20 10C20 15.5228 15.5228 20 10 20C4.47715 20 0 15.5228 0 10Z" fill="url(#paint0_linear_12852_114167)"/>
<path d="M8.55306 6.724C8.85206 5.849 10.0611 5.8225 10.4156 6.6445L10.4456 6.7245L10.8491 7.9045C10.9415 8.17512 11.091 8.42276 11.2873 8.63071C11.4836 8.83867 11.7222 9.00211 11.9871 9.11L12.0956 9.1505L13.2756 9.5535C14.1506 9.8525 14.1771 11.0615 13.3556 11.416L13.2756 11.446L12.0956 11.8495C11.8249 11.9419 11.5771 12.0913 11.3691 12.2876C11.161 12.4839 10.9975 12.7226 10.8896 12.9875L10.8491 13.0955L10.4461 14.276C10.1471 15.151 8.93806 15.1775 8.58406 14.356L8.55306 14.276L8.15006 13.096C8.05765 12.8253 7.90825 12.5776 7.71193 12.3695C7.51562 12.1615 7.27696 11.9979 7.01206 11.89L6.90406 11.8495L5.72406 11.4465C4.84856 11.1475 4.82206 9.9385 5.64406 9.5845L5.72406 9.5535L6.90406 9.1505C7.17468 9.05803 7.42232 8.9086 7.63028 8.71229C7.83823 8.51597 8.00167 8.27735 8.10956 8.0125L8.15006 7.9045L8.55306 6.724ZM13.4996 5C13.5931 5 13.6848 5.02624 13.7641 5.07574C13.8435 5.12523 13.9074 5.196 13.9486 5.28L13.9726 5.3385L14.1476 5.8515L14.6611 6.0265C14.7548 6.05835 14.837 6.11731 14.8972 6.19591C14.9574 6.27451 14.9929 6.36921 14.9992 6.46801C15.0055 6.56681 14.9824 6.66527 14.9327 6.75089C14.883 6.83652 14.809 6.90547 14.7201 6.949L14.6611 6.973L14.1481 7.148L13.9731 7.6615C13.9412 7.75521 13.8822 7.83735 13.8035 7.8975C13.7249 7.95764 13.6302 7.9931 13.5314 7.99936C13.4326 8.00563 13.3342 7.98242 13.2486 7.93269C13.163 7.88296 13.0941 7.80893 13.0506 7.72L13.0266 7.6615L12.8516 7.1485L12.3381 6.9735C12.2443 6.94165 12.1621 6.88269 12.1019 6.80409C12.0418 6.72549 12.0062 6.63079 11.9999 6.53199C11.9936 6.43319 12.0168 6.33473 12.0665 6.24911C12.1161 6.16348 12.1901 6.09453 12.2791 6.051L12.3381 6.027L12.8511 5.852L13.0261 5.3385C13.0598 5.23971 13.1236 5.15395 13.2085 5.09325C13.2934 5.03254 13.3952 4.99994 13.4996 5Z" fill="#F9FAFB"/>
<defs>
<linearGradient id="paint0_linear_12852_114167" x1="10" y1="20" x2="10" y2="0" gradientUnits="userSpaceOnUse">
<stop stop-color="#F6C879" stop-opacity="0.06"/>
<stop offset="1" stop-color="#EEAD44"/>
</linearGradient>
</defs>
</svg>
