<svg xmlns="http://www.w3.org/2000/svg" width="48" height="48" viewBox="0 0 48 48" fill="none">
  <path d="M18.2162 10.896C19.4122 7.396 24.2482 7.29 25.6662 10.578L25.7862 10.898L27.4002 15.618C27.7701 16.7005 28.3678 17.691 29.153 18.5228C29.9383 19.3547 30.8928 20.0084 31.9522 20.44L32.3862 20.602L37.1062 22.214C40.6062 23.41 40.7122 28.246 37.4262 29.664L37.1062 29.784L32.3862 31.398C31.3033 31.7676 30.3124 32.3653 29.4802 33.1505C28.648 33.9358 27.994 34.8904 27.5622 35.95L27.4002 36.382L25.7882 41.104C24.5922 44.604 19.7562 44.71 18.3402 41.424L18.2162 41.104L16.6042 36.384C16.2345 35.3012 15.6369 34.3102 14.8516 33.478C14.0664 32.6459 13.1117 31.9918 12.0522 31.56L11.6202 31.398L6.90016 29.786C3.39816 28.59 3.29216 23.754 6.58016 22.338L6.90016 22.214L11.6202 20.602C12.7026 20.2321 13.6932 19.6344 14.525 18.8491C15.3568 18.0639 16.0106 17.1094 16.4422 16.05L16.6042 15.618L18.2162 10.896ZM38.0022 4C38.3763 4 38.743 4.10496 39.0605 4.30294C39.378 4.50093 39.6335 4.78401 39.7982 5.12L39.8942 5.354L40.5942 7.406L42.6482 8.106C43.0231 8.23339 43.3518 8.46923 43.5926 8.78363C43.8334 9.09803 43.9755 9.47684 44.0007 9.87204C44.026 10.2672 43.9334 10.6611 43.7346 11.0036C43.5358 11.3461 43.2399 11.6219 42.8842 11.796L42.6482 11.892L40.5962 12.592L39.8962 14.646C39.7686 15.0209 39.5325 15.3494 39.218 15.59C38.9035 15.8306 38.5246 15.9724 38.1295 15.9974C37.7343 16.0225 37.3405 15.9297 36.9981 15.7308C36.6557 15.5318 36.3801 15.2357 36.2062 14.88L36.1102 14.646L35.4102 12.594L33.3562 11.894C32.9812 11.7666 32.6525 11.5308 32.4117 11.2164C32.1709 10.902 32.0289 10.5232 32.0036 10.128C31.9783 9.73275 32.071 9.33894 32.2697 8.99643C32.4685 8.65391 32.7645 8.37812 33.1202 8.204L33.3562 8.108L35.4082 7.408L36.1082 5.354C36.243 4.95885 36.4982 4.61582 36.8378 4.373C37.1775 4.13018 37.5846 3.99975 38.0022 4Z" fill="url(#paint0_linear_12911_62080)"/>
  <defs>
    <linearGradient id="paint0_linear_12911_62080" x1="24.0981" y1="4" x2="24.0981" y2="43.8113" gradientUnits="userSpaceOnUse">
      <stop stop-color="#3E62F5"/>
      <stop offset="1" stop-color="#9746FF"/>
    </linearGradient>
  </defs>
</svg>