<svg xmlns="http://www.w3.org/2000/svg" width="24" height="24" viewBox="0 0 24 24" fill="none">
  <path d="M9.93548 15.5C9.8462 15.1539 9.66581 14.8381 9.41309 14.5854C9.16037 14.3327 8.84455 14.1523 8.49848 14.063L2.36348 12.481C2.25881 12.4513 2.16668 12.3883 2.10109 12.3014C2.03549 12.2146 2 12.1088 2 12C2 11.8912 2.03549 11.7854 2.10109 11.6986C2.16668 11.6118 2.25881 11.5487 2.36348 11.519L8.49848 9.93601C8.84442 9.84681 9.16017 9.66658 9.41288 9.41404C9.66559 9.16151 9.84604 8.84589 9.93548 8.50001L11.5175 2.36501C11.5469 2.25992 11.6099 2.16735 11.6968 2.1014C11.7837 2.03545 11.8899 1.99976 11.999 1.99976C12.1081 1.99976 12.2142 2.03545 12.3012 2.1014C12.3881 2.16735 12.4511 2.25992 12.4805 2.36501L14.0615 8.50001C14.1508 8.84608 14.3311 9.1619 14.5839 9.41462C14.8366 9.66734 15.1524 9.84773 15.4985 9.93701L21.6335 11.518C21.739 11.5471 21.832 11.61 21.8983 11.6971C21.9646 11.7841 22.0005 11.8906 22.0005 12C22.0005 12.1094 21.9646 12.2159 21.8983 12.3029C21.832 12.39 21.739 12.4529 21.6335 12.482L15.4985 14.063C15.1524 14.1523 14.8366 14.3327 14.5839 14.5854C14.3311 14.8381 14.1508 15.1539 14.0615 15.5L12.4795 21.635C12.4501 21.7401 12.3871 21.8327 12.3002 21.8986C12.2132 21.9646 12.1071 22.0003 11.998 22.0003C11.8889 22.0003 11.7827 21.9646 11.6958 21.8986C11.6089 21.8327 11.5459 21.7401 11.5165 21.635L9.93548 15.5Z" stroke="currentColor" stroke-width="2" stroke-linecap="round" stroke-linejoin="round"/>
  <path d="M20 3V7" stroke="currentColor" stroke-width="2" stroke-linecap="round" stroke-linejoin="round"/>
  <path d="M22 5H18" stroke="currentColor" stroke-width="2" stroke-linecap="round" stroke-linejoin="round"/>
  <path d="M4 17V19" stroke="currentColor" stroke-width="2" stroke-linecap="round" stroke-linejoin="round"/>
  <path d="M5 18H3" stroke="currentColor" stroke-width="2" stroke-linecap="round" stroke-linejoin="round"/>
</svg>