<svg xmlns="http://www.w3.org/2000/svg" width="14" height="15" viewBox="0 0 14 15" fill="none">
  <path d="M6.625 0C6.9675 5.7604e-05 7.3037 0.0910039 7.60059 0.261719L7.60156 0.260742L12.2686 2.92773L12.2705 2.92871C12.5677 3.10036 12.8155 3.34744 12.9873 3.64453C13.159 3.94177 13.2496 4.27976 13.25 4.62305V9.95801C13.2495 10.3011 13.159 10.6385 12.9873 10.9355C12.8155 11.2328 12.5678 11.4797 12.2705 11.6514L12.2686 11.6533L7.60352 14.3174C7.3113 14.4861 6.98072 14.5768 6.64355 14.5801C6.63813 14.5802 6.63241 14.582 6.62695 14.582C6.62204 14.582 6.61719 14.5802 6.6123 14.5801C6.27295 14.5779 5.93955 14.488 5.64551 14.3184V14.3174L0.981445 11.6533L0.979492 11.6514C0.682198 11.4797 0.434549 11.2327 0.262695 10.9355C0.0909989 10.6385 0.000470211 10.3011 0 9.95801V4.62305L0.00390625 4.49414C0.0238929 4.19561 0.112404 3.90456 0.262695 3.64453C0.434551 3.34732 0.682166 3.10037 0.979492 2.92871L0.981445 2.92773L5.64844 0.260742V0.261719C5.94557 0.0907223 6.28215 1.66913e-07 6.625 0ZM1.25 9.95605L1.25586 10.0488C1.26807 10.1405 1.29814 10.23 1.34473 10.3105C1.40636 10.417 1.49536 10.5054 1.60156 10.5674L6.00195 13.0811V7.65234L1.25 4.9209V9.95605ZM7.25195 7.65039V13.0791L11.6484 10.5674C11.7547 10.5054 11.8437 10.417 11.9053 10.3105C11.9673 10.2033 11.9997 10.0809 12 9.95703V4.92188L7.25195 7.65039ZM6.625 1.25C6.50071 1.25 6.37816 1.2826 6.27051 1.34473L6.26855 1.34668L1.88965 3.84668L6.62598 6.56836L11.3604 3.84766L6.98145 1.34668L6.97949 1.34473C6.87191 1.28261 6.74923 1.25006 6.625 1.25Z" fill="currentColor"/>
</svg>