<svg xmlns="http://www.w3.org/2000/svg" width="16" height="16" viewBox="0 0 16 16" fill="none">
  <path fill-rule="evenodd" clip-rule="evenodd" d="M2 1.5H5C5.13261 1.5 5.25979 1.55268 5.35355 1.64645C5.44732 1.74021 5.5 1.86739 5.5 2V5C5.5 5.13261 5.44732 5.25979 5.35355 5.35355C5.25979 5.44732 5.13261 5.5 5 5.5H2C1.86739 5.5 1.74021 5.44732 1.64645 5.35355C1.55268 5.25979 1.5 5.13261 1.5 5V2C1.5 1.86739 1.55268 1.74021 1.64645 1.64645C1.74021 1.55268 1.86739 1.5 2 1.5ZM0 2C0 1.46957 0.210714 0.960859 0.585786 0.585786C0.960859 0.210714 1.46957 0 2 0H5C5.53043 0 6.03914 0.210714 6.41421 0.585786C6.78929 0.960859 7 1.46957 7 2V5C7 5.53043 6.78929 6.03914 6.41421 6.41421C6.03914 6.78929 5.53043 7 5 7H2C1.46957 7 0.960859 6.78929 0.585786 6.41421C0.210714 6.03914 0 5.53043 0 5V2ZM11 1.5H14C14.1326 1.5 14.2598 1.55268 14.3536 1.64645C14.4473 1.74021 14.5 1.86739 14.5 2V5C14.5 5.13261 14.4473 5.25979 14.3536 5.35355C14.2598 5.44732 14.1326 5.5 14 5.5H11C10.8674 5.5 10.7402 5.44732 10.6464 5.35355C10.5527 5.25979 10.5 5.13261 10.5 5V2C10.5 1.86739 10.5527 1.74021 10.6464 1.64645C10.7402 1.55268 10.8674 1.5 11 1.5ZM9 2C9 1.46957 9.21071 0.960859 9.58579 0.585786C9.96086 0.210714 10.4696 0 11 0H14C14.5304 0 15.0391 0.210714 15.4142 0.585786C15.7893 0.960859 16 1.46957 16 2V5C16 5.53043 15.7893 6.03914 15.4142 6.41421C15.0391 6.78929 14.5304 7 14 7H11C10.4696 7 9.96086 6.78929 9.58579 6.41421C9.21071 6.03914 9 5.53043 9 5V2ZM14 10.5H11C10.8674 10.5 10.7402 10.5527 10.6464 10.6464C10.5527 10.7402 10.5 10.8674 10.5 11V14C10.5 14.1326 10.5527 14.2598 10.6464 14.3536C10.7402 14.4473 10.8674 14.5 11 14.5H14C14.1326 14.5 14.2598 14.4473 14.3536 14.3536C14.4473 14.2598 14.5 14.1326 14.5 14V11C14.5 10.8674 14.4473 10.7402 14.3536 10.6464C14.2598 10.5527 14.1326 10.5 14 10.5ZM11 9C10.4696 9 9.96086 9.21071 9.58579 9.58579C9.21071 9.96086 9 10.4696 9 11V14C9 14.5304 9.21071 15.0391 9.58579 15.4142C9.96086 15.7893 10.4696 16 11 16H14C14.5304 16 15.0391 15.7893 15.4142 15.4142C15.7893 15.0391 16 14.5304 16 14V11C16 10.4696 15.7893 9.96086 15.4142 9.58579C15.0391 9.21071 14.5304 9 14 9H11ZM2 10.5H5C5.13261 10.5 5.25979 10.5527 5.35355 10.6464C5.44732 10.7402 5.5 10.8674 5.5 11V14C5.5 14.1326 5.44732 14.2598 5.35355 14.3536C5.25979 14.4473 5.13261 14.5 5 14.5H2C1.86739 14.5 1.74021 14.4473 1.64645 14.3536C1.55268 14.2598 1.5 14.1326 1.5 14V11C1.5 10.8674 1.55268 10.7402 1.64645 10.6464C1.74021 10.5527 1.86739 10.5 2 10.5ZM0 11C0 10.4696 0.210714 9.96086 0.585786 9.58579C0.960859 9.21071 1.46957 9 2 9H5C5.53043 9 6.03914 9.21071 6.41421 9.58579C6.78929 9.96086 7 10.4696 7 11V14C7 14.5304 6.78929 15.0391 6.41421 15.4142C6.03914 15.7893 5.53043 16 5 16H2C1.46957 16 0.960859 15.7893 0.585786 15.4142C0.210714 15.0391 0 14.5304 0 14V11Z" fill="currentColor"/>
</svg>