<svg width="28" height="29" viewBox="0 0 28 29" fill="none" xmlns="http://www.w3.org/2000/svg">
<path d="M18.0323 0C17.6293 0.000187613 17.2427 0.15976 16.9569 0.443899C16.6711 0.728039 16.5093 1.11368 16.5068 1.51669V8.63705C15.1216 7.31919 13.3803 6.43664 11.4985 6.09871C9.61672 5.76079 7.67713 5.98233 5.92001 6.7359C4.16289 7.48948 2.66544 8.74197 1.61316 10.3382C0.560879 11.9345 0 13.8044 0 15.7163C0 17.6282 0.560879 19.4981 1.61316 21.0943C2.66544 22.6906 4.16289 23.9431 5.92001 24.6967C7.67713 25.4502 9.61672 25.6718 11.4985 25.3339C13.3803 24.9959 15.1216 24.1134 16.5068 22.7955V23.3972C16.5093 23.8002 16.6711 24.1858 16.9569 24.4699C17.2427 24.7541 17.6293 24.9137 18.0323 24.9138C18.4351 24.9133 18.8213 24.7535 19.1068 24.4694C19.3923 24.1853 19.5539 23.7999 19.5564 23.3972V1.51669C19.5539 1.11394 19.3923 0.728518 19.1068 0.444421C18.8213 0.160323 18.4351 0.000578522 18.0323 0Z" fill="url(#paint0_linear_12904_49078)"/>
<g opacity="0.12">
<path d="M16.5096 17.8068V18.3151C16.3925 19.9396 15.8472 21.5042 14.9292 22.8496C14.3202 23.8394 13.6358 24.7807 12.882 25.6651C11.9063 26.8232 10.8601 27.9199 9.7493 28.9489C8.64217 27.9288 7.60034 26.8399 6.62997 25.6888C6.14911 25.1257 5.72307 24.5774 5.33853 24.0262C5.29704 23.9714 5.25628 23.9165 5.22887 23.878C4.78061 23.2519 4.37657 22.5954 4.01967 21.9131L3.97818 21.8308C3.38023 20.7621 3.04119 19.5682 2.98829 18.3447V17.8364C2.98673 16.8866 3.17563 15.9461 3.5438 15.0706C3.91197 14.195 4.45195 13.4021 5.13181 12.7388C6.36651 11.5318 8.02189 10.8517 9.74856 10.842C11.4774 10.8398 13.137 11.5214 14.3653 12.7381C14.489 12.8618 14.6128 12.9989 14.7358 13.1367C14.7807 13.1789 14.8221 13.2248 14.8595 13.2738C14.8869 13.3012 14.9143 13.3427 14.9418 13.3701C15.9445 14.6328 16.4963 16.1945 16.5096 17.8068Z" fill="black"/>
</g>
<path d="M16.5096 15.8276V16.3358C16.3925 17.9604 15.8472 19.525 14.9292 20.8703C14.3202 21.8601 13.6358 22.8014 12.882 23.6859C11.9063 24.8439 10.8601 25.9406 9.7493 26.9697C8.64217 25.9495 7.60034 24.8607 6.62997 23.7096C6.14911 23.1465 5.72307 22.5982 5.33853 22.0469C5.29704 21.9921 5.25628 21.9373 5.22887 21.8988C4.78061 21.2727 4.37657 20.6161 4.01967 19.9338L3.97818 19.8516C3.38023 18.7829 3.04119 17.5889 2.98829 16.3655V15.8572C2.98673 14.9074 3.17563 13.9669 3.5438 13.0913C3.91197 12.2157 4.45195 11.4229 5.13181 10.7596C6.36651 9.55252 8.02189 8.87241 9.74856 8.8628C11.4774 8.86059 13.137 9.54216 14.3653 10.7588C14.489 10.8826 14.6128 11.0197 14.7358 11.1575C14.7807 11.1997 14.8221 11.2455 14.8595 11.2945C14.8869 11.322 14.9143 11.3634 14.9418 11.3909C15.9445 12.6536 16.4963 14.2152 16.5096 15.8276Z" fill="white"/>
<path d="M9.73818 11.8399C9.22913 11.8393 8.72497 11.9391 8.25456 12.1336C7.78415 12.3282 7.35673 12.6136 6.99678 12.9735C6.63683 13.3335 6.35142 13.7609 6.15689 14.2313C5.96235 14.7017 5.86252 15.2059 5.86311 15.7149C5.86223 16.3835 6.03263 17.0411 6.35805 17.625L4.00781 19.9901C4.36273 20.6735 4.76686 21.3302 5.21701 21.9551L7.97921 19.1929C8.52237 19.4753 9.126 19.6215 9.73818 19.6189C10.7698 19.6189 11.7593 19.2091 12.4888 18.4796C13.2182 17.7501 13.6281 16.7607 13.6281 15.729C13.6281 14.6973 13.2182 13.7079 12.4888 12.9784C11.7593 12.2489 10.7698 11.8399 9.73818 11.8399Z" fill="#4353FF"/>
<path d="M8.58012 13.0302C8.09671 13.2361 7.68883 13.5865 7.41241 14.0334C7.38275 14.0816 7.36496 14.1362 7.36049 14.1926C7.35602 14.2491 7.36501 14.3057 7.3867 14.358C7.4084 14.4103 7.44219 14.4567 7.4853 14.4934C7.52841 14.5301 7.57961 14.556 7.63469 14.5691C7.64222 14.5682 7.64986 14.569 7.65705 14.5714C7.66423 14.5738 7.67077 14.5779 7.67618 14.5832C7.74887 14.5962 7.82383 14.586 7.89036 14.5539C7.95689 14.5219 8.01159 14.4696 8.04665 14.4046C8.24218 14.092 8.52902 13.8471 8.86834 13.7029C9.23302 13.5469 9.63959 13.5179 10.0227 13.6207C10.0895 13.6428 10.1618 13.6428 10.2285 13.6205C10.2953 13.5982 10.3531 13.5548 10.3932 13.497C10.4073 13.4829 10.4073 13.4696 10.4206 13.4555C10.4528 13.4098 10.4735 13.3571 10.481 13.3018C10.4886 13.2464 10.4826 13.1901 10.4637 13.1375C10.4448 13.0849 10.4135 13.0377 10.3725 12.9998C10.3314 12.9619 10.2819 12.9345 10.228 12.9198C9.6825 12.7643 9.09997 12.8034 8.58012 13.0302Z" fill="white"/>
<rect x="11.1172" y="9.64868" width="16.886" height="16.886" rx="8.44302" fill="white"/>
<path d="M18.2112 15.2412C18.491 14.4223 19.6225 14.3975 19.9543 15.1668L19.9824 15.2417L20.36 16.346C20.4466 16.5993 20.5864 16.8311 20.7702 17.0257C20.9539 17.2203 21.1772 17.3733 21.4251 17.4743L21.5266 17.5122L22.631 17.8894C23.4499 18.1692 23.4747 19.3007 22.7059 19.6325L22.631 19.6606L21.5266 20.0382C21.2733 20.1247 21.0414 20.2645 20.8467 20.4483C20.652 20.632 20.499 20.8554 20.3979 21.1033L20.36 21.2044L19.9829 22.3092C19.703 23.1281 18.5715 23.1529 18.2402 22.3841L18.2112 22.3092L17.834 21.2048C17.7475 20.9515 17.6077 20.7196 17.4239 20.5249C17.2402 20.3302 17.0169 20.1772 16.7689 20.0761L16.6679 20.0382L15.5635 19.661C14.7441 19.3812 14.7193 18.2497 15.4886 17.9184L15.5635 17.8894L16.6679 17.5122C16.9211 17.4256 17.1529 17.2858 17.3475 17.1021C17.5422 16.9183 17.6951 16.695 17.7961 16.4471L17.834 16.346L18.2112 15.2412ZM22.8407 13.6277C22.9282 13.6277 23.014 13.6522 23.0883 13.6986C23.1626 13.7449 23.2224 13.8111 23.2609 13.8897L23.2834 13.9445L23.4471 14.4246L23.9277 14.5884C24.0155 14.6182 24.0924 14.6734 24.1487 14.747C24.205 14.8205 24.2383 14.9091 24.2442 15.0016C24.2501 15.0941 24.2284 15.1862 24.1819 15.2664C24.1354 15.3465 24.0662 15.411 23.9829 15.4518L23.9277 15.4742L23.4476 15.638L23.2838 16.1186C23.254 16.2063 23.1987 16.2832 23.1251 16.3395C23.0516 16.3958 22.9629 16.429 22.8704 16.4348C22.778 16.4407 22.6859 16.419 22.6057 16.3724C22.5256 16.3259 22.4611 16.2566 22.4204 16.1734L22.398 16.1186L22.2342 15.6385L21.7536 15.4747C21.6659 15.4449 21.589 15.3897 21.5326 15.3162C21.4763 15.2426 21.443 15.154 21.4371 15.0615C21.4312 14.969 21.4529 14.8769 21.4994 14.7967C21.5459 14.7166 21.6152 14.6521 21.6984 14.6113L21.7536 14.5889L22.2337 14.4251L22.3975 13.9445C22.4291 13.852 22.4888 13.7718 22.5682 13.715C22.6477 13.6581 22.743 13.6276 22.8407 13.6277Z" fill="url(#paint1_linear_12904_49078)"/>
<defs>
<linearGradient id="paint0_linear_12904_49078" x1="7.83204e-07" y1="29.3363" x2="25.5427" y2="6.77831" gradientUnits="userSpaceOnUse">
<stop stop-color="#2AE498"/>
<stop offset="1" stop-color="#4353FF"/>
</linearGradient>
<linearGradient id="paint1_linear_12904_49078" x1="19.5874" y1="13.6277" x2="19.5874" y2="22.9426" gradientUnits="userSpaceOnUse">
<stop stop-color="#425DF8"/>
<stop offset="1" stop-color="#30C5AE"/>
</linearGradient>
</defs>
</svg>
